<svg width="8" height="12" viewBox="0 0 8 12" xmlns="http://www.w3.org/2000/svg">
  <path d="M2.35184 7.78942H0.58103C0.352538 7.78942 0.183549 7.68105 0.0740638 7.46431C-0.0354218 7.24757 -0.0235212 7.0384 0.109766 6.83678L4.3797 0.33464C4.47491 0.193508 4.59868 0.0952201 4.751 0.0397755C4.90333 -0.0156691 5.06042 -0.0131489 5.22227 0.0473361C5.38412 0.107821 5.50312 0.21367 5.57929 0.364882C5.65545 0.516095 5.68401 0.677388 5.66497 0.848763L5.20799 4.76517H7.4215C7.66903 4.76517 7.84278 4.8811 7.94275 5.11296C8.04271 5.34482 8.01177 5.56155 7.84992 5.76317L3.15156 11.7209C3.04684 11.852 2.91831 11.9377 2.76598 11.978C2.61365 12.0183 2.46609 12.0032 2.32328 11.9326C2.18047 11.8621 2.06861 11.7537 1.98768 11.6075C1.90676 11.4614 1.87582 11.3026 1.89486 11.1312L2.35184 7.78942Z" />
</svg>
