<svg width="12" height="12" viewBox="0 0 12 12" fill="none" xmlns="http://www.w3.org/2000/svg">
<path d="M4.33333 11C3.40741 11 2.62037 10.6759 1.97222 10.0278C1.32407 9.37963 1 8.59259 1 7.66667V4.33333C1 3.40741 1.32407 2.62037 1.97222 1.97222C2.62037 1.32407 3.40741 1 4.33333 1H7.66667C8.59259 1 9.37963 1.32407 10.0278 1.97222C10.6759 2.62037 11 3.40741 11 4.33333V7.66667C11 8.59259 10.6759 9.37963 10.0278 10.0278C9.37963 10.6759 8.59259 11 7.66667 11H4.33333ZM5.44444 6.66667L4.61111 5.83333C4.50926 5.73148 4.37963 5.68056 4.22222 5.68056C4.06481 5.68056 3.93519 5.73148 3.83333 5.83333C3.73148 5.93519 3.68056 6.06482 3.68056 6.22222C3.68056 6.37963 3.73148 6.50926 3.83333 6.61111L5.05556 7.83333C5.16667 7.94444 5.2963 8 5.44444 8C5.59259 8 5.72222 7.94444 5.83333 7.83333L8.38889 5.27778C8.49074 5.17593 8.54167 5.0463 8.54167 4.88889C8.54167 4.73148 8.49074 4.60185 8.38889 4.5C8.28704 4.39815 8.15741 4.34722 8 4.34722C7.84259 4.34722 7.71296 4.39815 7.61111 4.5L5.44444 6.66667Z" fill="#00F095"/>
</svg>
