<svg width="12" height="12" viewBox="0 0 12 12" fill="none" xmlns="http://www.w3.org/2000/svg">
<path d="M5 8C5.83333 8 6.54167 7.70833 7.125 7.125C7.70833 6.54167 8 5.83333 8 5C8 4.16667 7.70833 3.45833 7.125 2.875C6.54167 2.29167 5.83333 2 5 2C4.16667 2 3.45833 2.29167 2.875 2.875C2.29167 3.45833 2 4.16667 2 5C2 5.83333 2.29167 6.54167 2.875 7.125C3.45833 7.70833 4.16667 8 5 8ZM5 6.5C4.85833 6.5 4.73958 6.45208 4.64375 6.35625C4.54792 6.26042 4.5 6.14167 4.5 6V3.5C4.5 3.35833 4.54792 3.23958 4.64375 3.14375C4.73958 3.04792 4.85833 3 5 3C5.14167 3 5.26042 3.04792 5.35625 3.14375C5.45208 3.23958 5.5 3.35833 5.5 3.5V6C5.5 6.14167 5.45208 6.26042 5.35625 6.35625C5.26042 6.45208 5.14167 6.5 5 6.5ZM3.25 6.5C3.10833 6.5 2.98958 6.45208 2.89375 6.35625C2.79792 6.26042 2.75 6.14167 2.75 6V4.5C2.75 4.35833 2.79792 4.23958 2.89375 4.14375C2.98958 4.04792 3.10833 4 3.25 4C3.39167 4 3.51042 4.04792 3.60625 4.14375C3.70208 4.23958 3.75 4.35833 3.75 4.5V6C3.75 6.14167 3.70208 6.26042 3.60625 6.35625C3.51042 6.45208 3.39167 6.5 3.25 6.5ZM6.75 6.5C6.60833 6.5 6.48958 6.45208 6.39375 6.35625C6.29792 6.26042 6.25 6.14167 6.25 6V5C6.25 4.85833 6.29792 4.73958 6.39375 4.64375C6.48958 4.54792 6.60833 4.5 6.75 4.5C6.89167 4.5 7.01042 4.54792 7.10625 4.64375C7.20208 4.73958 7.25 4.85833 7.25 5V6C7.25 6.14167 7.20208 6.26042 7.10625 6.35625C7.01042 6.45208 6.89167 6.5 6.75 6.5ZM5 9C3.88333 9 2.9375 8.6125 2.1625 7.8375C1.3875 7.0625 1 6.11667 1 5C1 3.88333 1.3875 2.9375 2.1625 2.1625C2.9375 1.3875 3.88333 1 5 1C6.11667 1 7.0625 1.3875 7.8375 2.1625C8.6125 2.9375 9 3.88333 9 5C9 5.46667 8.92708 5.90833 8.78125 6.325C8.63542 6.74167 8.42917 7.12083 8.1625 7.4625L10.65 9.95C10.7417 10.0417 10.7875 10.1583 10.7875 10.3C10.7875 10.4417 10.7417 10.5583 10.65 10.65C10.5583 10.7417 10.4417 10.7875 10.3 10.7875C10.1583 10.7875 10.0417 10.7417 9.95 10.65L7.4625 8.1625C7.12083 8.42917 6.74167 8.63542 6.325 8.78125C5.90833 8.92708 5.46667 9 5 9Z" fill="#00F095"/>
</svg>
