<svg width="12" height="12" viewBox="0 0 12 12" fill="none" xmlns="http://www.w3.org/2000/svg">
<path d="M5.475 6.3502L4.775 5.6502C4.675 5.5502 4.55833 5.5002 4.425 5.5002C4.29167 5.5002 4.175 5.5502 4.075 5.6502C3.975 5.7502 3.925 5.86895 3.925 6.00645C3.925 6.14395 3.975 6.2627 4.075 6.3627L5.125 7.4252C5.225 7.5252 5.34167 7.5752 5.475 7.5752C5.60833 7.5752 5.725 7.5252 5.825 7.4252L7.95 5.3002C8.05 5.2002 8.1 5.08145 8.1 4.94395C8.1 4.80645 8.05 4.6877 7.95 4.5877C7.85 4.4877 7.73125 4.4377 7.59375 4.4377C7.45625 4.4377 7.3375 4.4877 7.2375 4.5877L5.475 6.3502ZM6 10.9502C5.94167 10.9502 5.8875 10.946 5.8375 10.9377C5.7875 10.9294 5.7375 10.9169 5.6875 10.9002C4.5625 10.5252 3.66667 9.83145 3 8.81895C2.33333 7.80645 2 6.71686 2 5.5502V3.1877C2 2.97936 2.06042 2.79186 2.18125 2.6252C2.30208 2.45853 2.45833 2.3377 2.65 2.2627L5.65 1.1377C5.76667 1.09603 5.88333 1.0752 6 1.0752C6.11667 1.0752 6.23333 1.09603 6.35 1.1377L9.35 2.2627C9.54167 2.3377 9.69792 2.45853 9.81875 2.6252C9.93958 2.79186 10 2.97936 10 3.1877V5.5502C10 6.71686 9.66667 7.80645 9 8.81895C8.33333 9.83145 7.4375 10.5252 6.3125 10.9002C6.2625 10.9169 6.2125 10.9294 6.1625 10.9377C6.1125 10.946 6.05833 10.9502 6 10.9502Z" fill="#00F095"/>
</svg>
