<svg width="10" height="10" viewBox="0 0 10 10" fill="none" xmlns="http://www.w3.org/2000/svg">
  <path d="M0 2.5H10V0.9375C10 0.675 9.91667 0.45625 9.75556 0.275C9.59444 0.09375 9.39444 0 9.16667 0H0.833333C0.6 0 0.405556 0.09375 0.244444 0.275C0.0833333 0.45625 0 0.68125 0 0.9375L0 2.5ZM0 6.25H10V3.75H0V6.25ZM0.833333 10H9.16667C9.4 10 9.59444 9.90625 9.75556 9.725C9.91667 9.54375 10 9.31875 10 9.0625V7.5H0V9.0625C0 9.325 0.0833333 9.54375 0.244444 9.725C0.405556 9.90625 0.605556 10 0.833333 10Z" fill="#00F095"/>
</svg>
