<svg width="9" height="9" viewBox="0 0 9 9" fill="none" xmlns="http://www.w3.org/2000/svg">
  <g clip-path="url(#clip0_53_24990)">
    <path d="M4.49998 1.875C4.39373 1.875 4.30467 1.83906 4.23279 1.76719C4.16092 1.69531 4.12498 1.60625 4.12498 1.5V0.75C4.12498 0.64375 4.16092 0.554688 4.23279 0.482813C4.30467 0.410938 4.39373 0.375 4.49998 0.375C4.60623 0.375 4.69529 0.410938 4.76717 0.482813C4.83904 0.554688 4.87498 0.64375 4.87498 0.75V1.5C4.87498 1.60625 4.83904 1.69531 4.76717 1.76719C4.69529 1.83906 4.60623 1.875 4.49998 1.875ZM6.35623 2.64375C6.28748 2.575 6.2531 2.48906 6.2531 2.38594C6.2531 2.28281 6.28748 2.19375 6.35623 2.11875L6.88123 1.58438C6.95623 1.50938 7.04529 1.47188 7.14842 1.47188C7.25154 1.47188 7.3406 1.50938 7.4156 1.58438C7.48435 1.65313 7.51873 1.74063 7.51873 1.84688C7.51873 1.95313 7.48435 2.04063 7.4156 2.10938L6.88123 2.64375C6.81248 2.7125 6.72498 2.74688 6.61873 2.74688C6.51248 2.74688 6.42498 2.7125 6.35623 2.64375ZM7.49998 4.875C7.39373 4.875 7.30467 4.83906 7.23279 4.76719C7.16092 4.69531 7.12498 4.60625 7.12498 4.5C7.12498 4.39375 7.16092 4.30469 7.23279 4.23281C7.30467 4.16094 7.39373 4.125 7.49998 4.125H8.24998C8.35623 4.125 8.44529 4.16094 8.51717 4.23281C8.58904 4.30469 8.62498 4.39375 8.62498 4.5C8.62498 4.60625 8.58904 4.69531 8.51717 4.76719C8.44529 4.83906 8.35623 4.875 8.24998 4.875H7.49998ZM4.49998 8.625C4.39373 8.625 4.30467 8.58906 4.23279 8.51719C4.16092 8.44531 4.12498 8.35625 4.12498 8.25V7.5C4.12498 7.39375 4.16092 7.30469 4.23279 7.23281C4.30467 7.16094 4.39373 7.125 4.49998 7.125C4.60623 7.125 4.69529 7.16094 4.76717 7.23281C4.83904 7.30469 4.87498 7.39375 4.87498 7.5V8.25C4.87498 8.35625 4.83904 8.44531 4.76717 8.51719C4.69529 8.58906 4.60623 8.625 4.49998 8.625ZM2.11873 2.64375L1.58435 2.11875C1.50935 2.04375 1.47185 1.95313 1.47185 1.84688C1.47185 1.74063 1.50935 1.65313 1.58435 1.58438C1.6531 1.51563 1.7406 1.48125 1.84685 1.48125C1.9531 1.48125 2.0406 1.51563 2.10935 1.58438L2.64373 2.11875C2.71248 2.1875 2.74685 2.275 2.74685 2.38125C2.74685 2.4875 2.71248 2.575 2.64373 2.64375C2.56873 2.7125 2.48123 2.74688 2.38123 2.74688C2.28123 2.74688 2.19373 2.7125 2.11873 2.64375ZM6.88123 7.41563L6.35623 6.88125C6.28748 6.80625 6.2531 6.71719 6.2531 6.61406C6.2531 6.51094 6.28748 6.425 6.35623 6.35625C6.42498 6.2875 6.51092 6.25313 6.61404 6.25313C6.71717 6.25313 6.80623 6.2875 6.88123 6.35625L7.4156 6.88125C7.4906 6.95 7.52654 7.0375 7.52342 7.14375C7.52029 7.25 7.48435 7.34063 7.4156 7.41563C7.3406 7.49063 7.24998 7.52813 7.14373 7.52813C7.03748 7.52813 6.94998 7.49063 6.88123 7.41563ZM0.749977 4.875C0.643727 4.875 0.554665 4.83906 0.48279 4.76719C0.410915 4.69531 0.374977 4.60625 0.374977 4.5C0.374977 4.39375 0.410915 4.30469 0.48279 4.23281C0.554665 4.16094 0.643727 4.125 0.749977 4.125H1.49998C1.60623 4.125 1.69529 4.16094 1.76716 4.23281C1.83904 4.30469 1.87498 4.39375 1.87498 4.5C1.87498 4.60625 1.83904 4.69531 1.76716 4.76719C1.69529 4.83906 1.60623 4.875 1.49998 4.875H0.749977ZM1.58435 7.41563C1.5156 7.34688 1.48123 7.25938 1.48123 7.15313C1.48123 7.04688 1.5156 6.95938 1.58435 6.89063L2.11873 6.35625C2.18748 6.2875 2.27341 6.25313 2.37654 6.25313C2.47966 6.25313 2.56873 6.2875 2.64373 6.35625C2.71873 6.43125 2.75623 6.52031 2.75623 6.62344C2.75623 6.72656 2.71873 6.81563 2.64373 6.89063L2.11873 7.41563C2.04373 7.49063 1.9531 7.52813 1.84685 7.52813C1.7406 7.52813 1.6531 7.49063 1.58435 7.41563ZM4.49998 6.75C3.87498 6.75 3.34373 6.53125 2.90623 6.09375C2.46873 5.65625 2.24998 5.125 2.24998 4.5C2.24998 3.875 2.46873 3.34375 2.90623 2.90625C3.34373 2.46875 3.87498 2.25 4.49998 2.25C5.12498 2.25 5.65623 2.46875 6.09373 2.90625C6.53123 3.34375 6.74998 3.875 6.74998 4.5C6.74998 5.125 6.53123 5.65625 6.09373 6.09375C5.65623 6.53125 5.12498 6.75 4.49998 6.75Z" fill="#1F1F1F"/>
  </g>
  <defs>
    <clipPath id="clip0_53_24990">
      <rect width="9" height="9" fill="white"/>
    </clipPath>
  </defs>
</svg>
