<svg width="12" height="12" viewBox="0 0 12 12" fill="none" xmlns="http://www.w3.org/2000/svg">
<g clip-path="url(#clip0_53_25186)">
<path d="M5.47501 6.34969L4.75001 5.63719C4.65834 5.54553 4.54376 5.49969 4.40626 5.49969C4.26876 5.49969 4.15001 5.54969 4.05001 5.64969C3.95834 5.74136 3.91251 5.85803 3.91251 5.99969C3.91251 6.14136 3.95834 6.25803 4.05001 6.34969L5.12501 7.42469C5.22501 7.52469 5.34167 7.57469 5.47501 7.57469C5.60834 7.57469 5.72501 7.52469 5.82501 7.42469L7.95001 5.29969C8.05001 5.19969 8.09792 5.08303 8.09376 4.94969C8.08959 4.81636 8.04167 4.69969 7.95001 4.59969C7.85001 4.49969 7.73126 4.44761 7.59376 4.44344C7.45626 4.43928 7.33751 4.48719 7.23751 4.58719L5.47501 6.34969ZM4.07501 10.8747L3.35001 9.64969L1.97501 9.34969C1.85001 9.32469 1.75001 9.26011 1.67501 9.15594C1.60001 9.05178 1.57084 8.93719 1.58751 8.81219L1.72501 7.39969L0.787506 6.32469C0.704173 6.23303 0.662506 6.12469 0.662506 5.99969C0.662506 5.87469 0.704173 5.76636 0.787506 5.67469L1.72501 4.59969L1.58751 3.18719C1.57084 3.06219 1.60001 2.94761 1.67501 2.84344C1.75001 2.73928 1.85001 2.67469 1.97501 2.64969L3.35001 2.34969L4.07501 1.12469C4.14167 1.01636 4.23334 0.943443 4.35001 0.905943C4.46667 0.868443 4.58334 0.874693 4.70001 0.924693L6.00001 1.47469L7.30001 0.924693C7.41667 0.874693 7.53334 0.868443 7.65001 0.905943C7.76667 0.943443 7.85834 1.01636 7.92501 1.12469L8.65001 2.34969L10.025 2.64969C10.15 2.67469 10.25 2.73928 10.325 2.84344C10.4 2.94761 10.4292 3.06219 10.4125 3.18719L10.275 4.59969L11.2125 5.67469C11.2958 5.76636 11.3375 5.87469 11.3375 5.99969C11.3375 6.12469 11.2958 6.23303 11.2125 6.32469L10.275 7.39969L10.4125 8.81219C10.4292 8.93719 10.4 9.05178 10.325 9.15594C10.25 9.26011 10.15 9.32469 10.025 9.34969L8.65001 9.64969L7.92501 10.8747C7.85834 10.983 7.76667 11.0559 7.65001 11.0934C7.53334 11.1309 7.41667 11.1247 7.30001 11.0747L6.00001 10.5247L4.70001 11.0747C4.58334 11.1247 4.46667 11.1309 4.35001 11.0934C4.23334 11.0559 4.14167 10.983 4.07501 10.8747Z" fill="#00F095"/>
</g>
<defs>
<clipPath id="clip0_53_25186">
<rect width="12" height="12" fill="white"/>
</clipPath>
</defs>
</svg>
