<svg width="9" height="9" viewBox="0 0 9 9" fill="none" xmlns="http://www.w3.org/2000/svg">
  <g clip-path="url(#clip0_53_24994)">
    <path d="M4.12503 6.69375L3.15941 7.64063C3.09066 7.70938 3.00472 7.74375 2.90159 7.74375C2.79847 7.74375 2.71253 7.70625 2.64378 7.63125C2.56878 7.5625 2.53128 7.47656 2.53128 7.37344C2.53128 7.27031 2.56878 7.18125 2.64378 7.10625L4.12503 5.625V4.875H3.37503L1.88441 6.36563C1.81566 6.43438 1.72972 6.46875 1.62659 6.46875C1.52347 6.46875 1.43441 6.43125 1.35941 6.35625C1.29066 6.2875 1.25628 6.20156 1.25628 6.09844C1.25628 5.99531 1.29066 5.90938 1.35941 5.84063L2.30628 4.875H1.11566C1.00941 4.875 0.921906 4.83906 0.853156 4.76719C0.784406 4.69531 0.750031 4.60625 0.750031 4.5C0.750031 4.39375 0.785968 4.30469 0.857843 4.23281C0.929718 4.16094 1.01878 4.125 1.12503 4.125H2.30628L1.35941 3.16875C1.29066 3.1 1.25628 3.01406 1.25628 2.91094C1.25628 2.80781 1.29378 2.71875 1.36878 2.64375C1.43753 2.575 1.52347 2.54063 1.62659 2.54063C1.72972 2.54063 1.81878 2.575 1.89378 2.64375L3.37503 4.125H4.12503V3.375L2.63441 1.89375C2.56566 1.825 2.53128 1.73906 2.53128 1.63594C2.53128 1.53281 2.56878 1.44375 2.64378 1.36875C2.71253 1.3 2.79847 1.26562 2.90159 1.26562C3.00472 1.26562 3.09066 1.3 3.15941 1.36875L4.12503 2.30625V1.125C4.12503 1.01875 4.16097 0.929688 4.23284 0.857813C4.30472 0.785938 4.39378 0.75 4.50003 0.75C4.60628 0.75 4.69534 0.785938 4.76722 0.857813C4.83909 0.929688 4.87503 1.01875 4.87503 1.125V2.30625L5.83128 1.36875C5.90003 1.3 5.98597 1.26562 6.08909 1.26562C6.19222 1.26562 6.28128 1.3 6.35628 1.36875C6.42503 1.44375 6.45941 1.53281 6.45941 1.63594C6.45941 1.73906 6.42503 1.825 6.35628 1.89375L4.87503 3.375V4.125H5.62503L7.10628 2.64375C7.17503 2.575 7.26097 2.54063 7.36409 2.54063C7.46722 2.54063 7.55628 2.57813 7.63128 2.65313C7.70003 2.72188 7.73441 2.80781 7.73441 2.91094C7.73441 3.01406 7.70003 3.1 7.63128 3.16875L6.69378 4.125H7.87503C7.98128 4.125 8.07034 4.16094 8.14222 4.23281C8.21409 4.30469 8.25003 4.39375 8.25003 4.5C8.25003 4.60625 8.21409 4.69531 8.14222 4.76719C8.07034 4.83906 7.98128 4.875 7.87503 4.875H6.69378L7.63128 5.84063C7.70003 5.90938 7.73441 5.99531 7.73441 6.09844C7.73441 6.20156 7.70003 6.2875 7.63128 6.35625C7.55628 6.43125 7.46722 6.46875 7.36409 6.46875C7.26097 6.46875 7.17503 6.43125 7.10628 6.35625L5.62503 4.875H4.87503V5.625L6.35628 7.11563C6.42503 7.18438 6.45941 7.27031 6.45941 7.37344C6.45941 7.47656 6.42191 7.56563 6.34691 7.64063C6.27816 7.70938 6.19222 7.74375 6.08909 7.74375C5.98597 7.74375 5.90003 7.70938 5.83128 7.64063L4.87503 6.69375V7.88438C4.87503 7.99063 4.83909 8.07813 4.76722 8.14688C4.69534 8.21563 4.60628 8.25 4.50003 8.25C4.39378 8.25 4.30472 8.21406 4.23284 8.14219C4.16097 8.07031 4.12503 7.98125 4.12503 7.875V6.69375Z" fill="#1F1F1F"/>
  </g>
  <defs>
    <clipPath id="clip0_53_24994">
      <rect width="9" height="9" fill="white"/>
    </clipPath>
  </defs>
</svg>
