<?xml version="1.0" encoding="UTF-8"?>
<svg id="Calque_1" data-name="Calque 1" xmlns="http://www.w3.org/2000/svg" viewBox="0 0 647.65 250.63">
  <defs>
    <style>
      .cls-1 {
        font-family: Nexa-Regular, Nexa;
        font-size: 41px;
      }

      .cls-1, .cls-2 {
        fill: #1c432d;
      }

      .cls-3 {
        letter-spacing: .95em;
      }

      .cls-4 {
        letter-spacing: .95em;
      }

      .cls-5 {
        letter-spacing: .95em;
      }
    </style>
  </defs>
  <g>
    <g>
      <rect class="cls-2" x="267.98" y="63.44" width="109.13" height="48.23" rx="12.2" ry="12.2"/>
      <rect class="cls-2" x="267.98" y="126.87" width="109.13" height="48.23" rx="12.2" ry="12.2"/>
      <rect class="cls-2" x="267.98" y="0" width="109.13" height="48.23" rx="12.2" ry="12.2"/>
    </g>
    <path class="cls-2" d="M191.39,175.1H33.15V0h158.24C220.15,0,243.67,23.51,243.67,52.53c0,13.51-5,25.51-13.26,35.02,8.25,9.26,13.26,21.51,13.26,35.02,0,28.77-23.51,52.53-52.28,52.53ZM68.16,70.04h123.22c9.5,0,17.51-7.76,17.51-17.51s-8-17.51-17.51-17.51h-123.22v35.02ZM68.16,139.83h123.22c9.5,0,17.51-7.75,17.51-17.26s-8-17.51-17.51-17.51h-123.22v34.77Z"/>
    <path class="cls-2" d="M562.22,175.1h-158.24V0h158.24C590.99,0,614.5,23.51,614.5,52.53c0,13.51-5,25.51-13.26,35.02,8.25,9.26,13.26,21.51,13.26,35.02,0,28.77-23.51,52.53-52.28,52.53ZM439,70.04h123.22c9.5,0,17.51-7.76,17.51-17.51s-8-17.51-17.51-17.51h-123.22v35.02ZM439,139.83h123.22c9.5,0,17.51-7.75,17.51-17.26s-8-17.51-17.51-17.51h-123.22v34.77Z"/>
  </g>
  <text class="cls-1" transform="translate(77.87 235.33)"><tspan class="cls-3" x="0" y="0">bat</tspan><tspan class="cls-5" x="185.11" y="0">t</tspan><tspan class="cls-4" x="240.59" y="0">eries</tspan></text>
</svg>
