<svg width="95" height="40" viewBox="0 0 95 40" fill="none" xmlns="http://www.w3.org/2000/svg">
<g clip-path="url(#clip0_53_27151)">
<path d="M54.1601 10.4062H40.4167C39.2877 10.4062 38.3725 11.3249 38.3725 12.4581V16.2658C38.3725 17.399 39.2877 18.3177 40.4167 18.3177H54.1601C55.2891 18.3177 56.2043 17.399 56.2043 16.2658V12.4581C56.2043 11.3249 55.2891 10.4062 54.1601 10.4062Z" fill="#05442B"/>
<path d="M54.1601 20.8096H40.4167C39.2877 20.8096 38.3725 21.7282 38.3725 22.8615V26.6691C38.3725 27.8024 39.2877 28.721 40.4167 28.721H54.1601C55.2891 28.721 56.2043 27.8024 56.2043 26.6691V22.8615C56.2043 21.7282 55.2891 20.8096 54.1601 20.8096Z" fill="#05442B"/>
<path d="M54.1601 0H40.4167C39.2877 0 38.3725 0.918665 38.3725 2.0519V5.85957C38.3725 6.9928 39.2877 7.91146 40.4167 7.91146H54.1601C55.2891 7.91146 56.2043 6.9928 56.2043 5.85957V2.0519C56.2043 0.918665 55.2891 0 54.1601 0Z" fill="#05442B"/>
<path d="M25.8598 28.7206H0V0H25.8598C30.5591 0 34.4002 3.85553 34.4002 8.61736C34.4002 10.8338 33.5837 12.8019 32.2338 14.3603C33.5837 15.8798 34.4002 17.8898 34.4002 20.1032C34.4002 24.8232 30.5591 28.7206 25.8568 28.7206H25.8598ZM5.72146 11.4888H25.8568C27.4093 11.4888 28.7175 10.2176 28.7175 8.61736C28.7175 7.01712 27.4093 5.74591 25.8568 5.74591H5.72146V11.4888ZM5.72146 22.9358H25.8568C27.4093 22.9358 28.7175 21.6645 28.7175 20.1032C28.7175 18.5418 27.4093 17.2317 25.8568 17.2317H5.72146V22.9358Z" fill="#05442B"/>
<path d="M86.4565 28.7206H60.5968V0H86.4565C91.1589 0 95 3.85553 95 8.61736C95 10.8338 94.1835 12.8019 92.8336 14.3603C94.1835 15.8798 95 17.8898 95 20.1032C95 24.8232 91.1589 28.7206 86.4565 28.7206ZM66.3212 11.4888H86.4565C88.0091 11.4888 89.3173 10.2176 89.3173 8.61736C89.3173 7.01712 88.0091 5.74591 86.4565 5.74591H66.3212V11.4888ZM66.3212 22.9358H86.4565C88.0091 22.9358 89.3173 21.6645 89.3173 20.1032C89.3173 18.5418 88.0091 17.2317 86.4565 17.2317H66.3212V22.9358Z" fill="#05442B"/>
<path d="M11.2611 38.25C11.2611 39.2999 10.5728 39.9849 9.61919 39.9849C9.07089 39.9849 8.609 39.7695 8.35272 39.4195L8.34676 39.9101H7.78952V35.2051H8.41232V37.0057C8.67456 36.6976 9.10962 36.5152 9.61919 36.5152C10.5698 36.5152 11.2611 37.2001 11.2611 38.25ZM10.6383 38.25C10.6383 37.571 10.1824 37.0925 9.52681 37.0925C8.87123 37.0925 8.4153 37.571 8.4153 38.25C8.4153 38.929 8.87719 39.4076 9.52681 39.4076C10.1764 39.4076 10.6383 38.929 10.6383 38.25Z" fill="#05442B"/>
<path d="M21.6253 36.5904V39.9105H21.077L21.071 39.42C20.8088 39.7699 20.3529 39.9853 19.8105 39.9853C18.8391 39.9853 18.1567 39.2734 18.1567 38.2505C18.1567 37.2275 18.8391 36.5156 19.8105 36.5156C20.3529 36.5156 20.8088 36.731 21.071 37.0809L21.077 36.5904H21.6253ZM21.0025 38.2505C21.0025 37.5715 20.5466 37.0929 19.891 37.0929C19.2354 37.0929 18.7795 37.5715 18.7795 38.2505C18.7795 38.9294 19.2414 39.408 19.891 39.408C20.5406 39.408 21.0025 38.9294 21.0025 38.2505Z" fill="#05442B"/>
<path d="M31.0866 39.8054C30.8452 39.9131 30.6306 39.9609 30.3833 39.9609C29.686 39.9609 29.3373 39.5571 29.3373 38.8124V37.1373H28.6877V36.593H29.3373V35.6986L29.9542 35.6328V36.593H30.9584V37.1373H29.9542V38.8124C29.9542 39.1832 30.0942 39.3986 30.4578 39.3986C30.5978 39.3986 30.7647 39.3508 30.9078 39.2909L31.0895 39.8084L31.0866 39.8054Z" fill="#05442B"/>
<path d="M40.1634 39.8054C39.922 39.9131 39.7075 39.9609 39.4601 39.9609C38.7628 39.9609 38.4142 39.5571 38.4142 38.8124V37.1373H37.7646V36.593H38.4142V35.6986L39.031 35.6328V36.593H40.0353V37.1373H39.031V38.8124C39.031 39.1832 39.1711 39.3986 39.5346 39.3986C39.6747 39.3986 39.8416 39.3508 39.9846 39.2909L40.1664 39.8084L40.1634 39.8054Z" fill="#05442B"/>
<path d="M50.2654 38.5015H47.5268C47.5864 39.0728 48.0215 39.4227 48.6592 39.4227C49.0615 39.4227 49.4697 39.2672 49.6634 39.0339L50.0657 39.4167C49.7498 39.7787 49.2164 40.003 48.6473 40.003C47.5834 40.003 46.8861 39.3121 46.8861 38.2562C46.8861 37.2003 47.5685 36.5273 48.5817 36.5273C49.72 36.5273 50.3637 37.2811 50.2683 38.5045L50.2654 38.5015ZM47.5328 37.9691H49.6753C49.6217 37.4307 49.2134 37.0807 48.5966 37.0807C48.0125 37.0807 47.6311 37.4097 47.5328 37.9691Z" fill="#05442B"/>
<path d="M59.7684 36.7934L59.4883 37.3169C59.3005 37.1972 59.1277 37.1434 58.9251 37.1434C58.3559 37.1434 57.9804 37.595 57.9804 38.28V39.9131H57.3576V36.593H57.9149L57.9208 37.1524C58.183 36.7366 58.5168 36.5332 58.9578 36.5332C59.2737 36.5332 59.5747 36.6349 59.7684 36.7964V36.7934Z" fill="#05442B"/>
<path d="M66.5149 35.6091C66.5149 35.3668 66.6967 35.1934 66.938 35.1934C67.1794 35.1934 67.3612 35.3668 67.3612 35.6091C67.3612 35.8514 67.1883 36.0189 66.938 36.0189C66.6877 36.0189 66.5149 35.8454 66.5149 35.6091ZM66.6222 36.5902H67.245V39.9103H66.6222V36.5902Z" fill="#05442B"/>
<path d="M77.7343 38.5015H74.9958C75.0554 39.0728 75.4904 39.4227 76.1281 39.4227C76.5304 39.4227 76.9387 39.2672 77.1324 39.0339L77.5347 39.4167C77.2188 39.7787 76.6854 40.003 76.1162 40.003C75.0524 40.003 74.3551 39.3121 74.3551 38.2562C74.3551 37.2003 75.0375 36.5273 76.0507 36.5273C77.189 36.5273 77.8327 37.2811 77.7373 38.5045L77.7343 38.5015ZM75.0017 37.9691H77.1443C77.0907 37.4307 76.6824 37.0807 76.0656 37.0807C75.4815 37.0807 75.1001 37.4097 75.0017 37.9691Z" fill="#05442B"/>
<path d="M84.5702 39.4768L84.8861 39.0131C85.1752 39.2674 85.6102 39.4229 86.0721 39.4229C86.534 39.4229 86.841 39.2554 86.841 38.9713C86.841 38.6871 86.6055 38.5734 86.0096 38.5017C85.1186 38.394 84.6775 38.065 84.6775 37.5056C84.6775 36.9134 85.2407 36.5186 86.0841 36.5186C86.5877 36.5186 87.0078 36.6472 87.3833 36.9164L87.0942 37.374C86.7933 37.1587 86.4714 37.0659 86.1109 37.0659C85.5745 37.0659 85.2884 37.2215 85.2884 37.5026C85.2884 37.7509 85.503 37.8795 86.0662 37.9543C87.0495 38.0829 87.4578 38.379 87.4578 38.9832C87.4578 39.5874 86.8946 39.9912 86.0572 39.9912C85.494 39.9912 84.9994 39.8177 84.5702 39.4797V39.4768Z" fill="#05442B"/>
</g>
<defs>
<clipPath id="clip0_53_27151">
<rect width="95" height="40" fill="white"/>
</clipPath>
</defs>
</svg>
