<svg width="32" height="32" viewBox="32.5 -1.5 31.5 31.5" fill="none" xmlns="http://www.w3.org/2000/svg">
<path d="M54.1601 0H40.4167C39.2877 0 38.3725 0.918665 38.3725 2.0519V5.85957C38.3725 6.9928 39.2877 7.91146 40.4167 7.91146H54.1601C55.2891 7.91146 56.2043 6.9928 56.2043 5.85957V2.0519C56.2043 0.918665 55.2891 0 54.1601 0Z" fill="#00f095"/>
<path d="M54.1601 10.4062H40.4167C39.2877 10.4062 38.3725 11.3249 38.3725 12.4581V16.2658C38.3725 17.399 39.2877 18.3177 40.4167 18.3177H54.1601C55.2891 18.3177 56.2043 17.399 56.2043 16.2658V12.4581C56.2043 11.3249 55.2891 10.4062 54.1601 10.4062Z" fill="#00f095"/>
<path d="M54.1601 20.8096H40.4167C39.2877 20.8096 38.3725 21.7282 38.3725 22.8615V26.6691C38.3725 27.8024 39.2877 28.721 40.4167 28.721H54.1601C55.2891 28.721 56.2043 27.8024 56.2043 26.6691V22.8615C56.2043 21.7282 55.2891 20.8096 54.1601 20.8096Z" fill="#00f095"/>
</svg>
